<svg xmlns="http://www.w3.org/2000/svg" xmlns:xlink="http://www.w3.org/1999/xlink" width="239" height="79" viewBox="0 0 239 79">
  <defs>
    <clipPath id="clip-path">
      <rect id="Rectangle_85" data-name="Rectangle 85" width="239" height="79" fill="#fff"/>
    </clipPath>
  </defs>
  <g id="Logo" clip-path="url(#clip-path)">
    <g id="Univision" transform="translate(0.086)">
      <g id="Group_9" data-name="Group 9" transform="translate(19.727 12.561)">
        <path id="Path_297" data-name="Path 297" d="M4.954,3.313V33.166c0,7.518,3.524,10.98,9.434,10.98,9.139,0,9.512-7.247,9.512-11.511V3.313H17.581V31.036c-.04,2.982-.04,5.915-3.146,5.915-3.441,0-3.142-4.587-3.142-7.621V3.3Z" transform="translate(-4.954 -2.67)"/>
        <path id="Path_298" data-name="Path 298" d="M12.4,3.31v40.2h6.336V25.059l-.044-1.651-.292-4.05.08-.1L26.3,43.506h6V3.31H25.961V21.375a31.431,31.431,0,0,0,.51,6.079l-.084.1L18.491,3.3Z" transform="translate(17.257 -2.667)"/>
        <rect id="Rectangle_86" data-name="Rectangle 86" width="6.333" height="40.193" transform="translate(60.383 0.646)"/>
        <path id="Path_299" data-name="Path 299" d="M23.958,3.3l9.266,40.2h5.185l8.88-40.2H40.663L36.8,22.5c-.51,2.342-.641,4.64-.98,6.982h-.084c-.378-2.29-.593-4.579-1.147-6.874L30.759,3.3Z" transform="translate(51.718 -2.661)"/>
        <rect id="Rectangle_87" data-name="Rectangle 87" width="6.335" height="40.193" transform="translate(107.976 0.646)"/>
        <path id="Path_300" data-name="Path 300" d="M50.165,5.117a9.252,9.252,0,0,0-5.607-1.974c-5.44,0-8.37,5.495-8.37,11.842,0,5.859,2.254,8.848,5.9,11.938,1.784,1.6,3.735,2.77,3.735,5.867,0,2.666-1.609,4.368-3.652,4.368a7.177,7.177,0,0,1-4.8-2.13V42.6a8.45,8.45,0,0,0,5.444,2.026c5.945,0,9.219-5.383,9.219-12.529,0-10.874-9.649-11.25-9.649-17.864,0-2.45,1.234-3.944,3.19-3.944,1.744,0,3.317,1.175,4.587,2.562Z" transform="translate(88.189 -3.143)"/>
        <rect id="Rectangle_88" data-name="Rectangle 88" width="6.335" height="40.193" transform="translate(150.255 0.646)"/>
        <path id="Path_301" data-name="Path 301" d="M57.992,3.143c-5.639,0-11.277,5.659-11.277,20.749S52.33,44.637,57.992,44.637,69.27,38.979,69.27,23.892,63.647,3.143,57.992,3.143ZM53.481,23.892c0-3.573.295-13.38,4.512-13.38S62.5,20.319,62.5,23.892c0,3.2-.3,13.38-4.512,13.38s-4.5-10.19-4.5-13.388Z" transform="translate(119.582 -3.143)"/>
        <path id="Path_302" data-name="Path 302" d="M54.816,3.31v40.2h6.332V25.059l-.036-1.651-.3-4.052.088-.1,7.817,24.254H74.7V3.31H68.375V21.375a31.125,31.125,0,0,0,.514,6.079l-.088.1L60.909,3.3Z" transform="translate(143.74 -2.667)"/>
      </g>
      <g id="Group_10" data-name="Group 10" transform="translate(19.321 66.606)">
        <path id="Path_303" data-name="Path 303" d="M6.713,27.2H5.1V15.456H6.7Z" transform="translate(-5.1 -15.276)"/>
        <path id="Path_304" data-name="Path 304" d="M15.313,27.2H13.732L8.094,18.13H8.042v9.051H6.461V15.456H8.042l5.639,9.055h.052V15.456h1.581Z" transform="translate(-1.053 -15.276)"/>
        <path id="Path_305" data-name="Path 305" d="M16.425,24.369a1.733,1.733,0,0,0-.6-1.343,5.065,5.065,0,0,0-2.138-.911,7.059,7.059,0,0,1-2.891-1.3,2.713,2.713,0,0,1-1.043-2.178,2.871,2.871,0,0,1,1.127-2.294,4.408,4.408,0,0,1,2.9-.923,4.307,4.307,0,0,1,3.058,1.059,3.11,3.11,0,0,1,1.1,2.45v.044H16.429a2.149,2.149,0,0,0-.677-1.663,3.3,3.3,0,0,0-3.752-.1,1.752,1.752,0,0,0-.633,1.4,1.539,1.539,0,0,0,.681,1.279,6.475,6.475,0,0,0,2.218.9,6.291,6.291,0,0,1,2.811,1.351,2.9,2.9,0,0,1,.968,2.222,2.728,2.728,0,0,1-1.159,2.262,4.97,4.97,0,0,1-3.006.859,5.2,5.2,0,0,1-3.094-.955,2.867,2.867,0,0,1-1.31-2.546l.02-.052H11a1.977,1.977,0,0,0,.824,1.714,3.467,3.467,0,0,0,2.051.591,3.182,3.182,0,0,0,1.876-.508A1.594,1.594,0,0,0,16.425,24.369Z" transform="translate(7.918 -15.409)"/>
        <path id="Path_306" data-name="Path 306" d="M13.984,22.482v4.724H12.4V15.456h4.476a4.091,4.091,0,0,1,2.907.963,3.677,3.677,0,0,1,0,5.111,4.132,4.132,0,0,1-2.907.951Zm0-1.25h2.891a2.324,2.324,0,0,0,1.768-3.873,2.227,2.227,0,0,0-1.768-.651H13.984Z" transform="translate(16.654 -15.276)"/>
        <path id="Path_307" data-name="Path 307" d="M22.2,21.75H16.833v4.187h6.18V27.2H15.252V15.456h7.67V16.7H16.833v3.8H22.2Z" transform="translate(25.162 -15.276)"/>
        <path id="Path_308" data-name="Path 308" d="M26.515,23.549l.02.048a3.56,3.56,0,0,1-1.159,2.77A4.438,4.438,0,0,1,22.23,27.5,4.13,4.13,0,0,1,19,26.086a5.2,5.2,0,0,1-1.25-3.581V20.418A5.213,5.213,0,0,1,19,16.839a4.117,4.117,0,0,1,3.229-1.415,4.522,4.522,0,0,1,3.162,1.063,3.53,3.53,0,0,1,1.127,2.81l-.02.044h-1.5a2.626,2.626,0,0,0-.721-1.95,2.782,2.782,0,0,0-2.043-.72,2.5,2.5,0,0,0-2.111,1.071,4.4,4.4,0,0,0-.784,2.641v2.1a4.389,4.389,0,0,0,.784,2.67,2.477,2.477,0,0,0,2.111,1.075,2.752,2.752,0,0,0,2.043-.716,2.623,2.623,0,0,0,.721-1.97Z" transform="translate(32.603 -15.392)"/>
        <path id="Path_309" data-name="Path 309" d="M29.444,16.694H25.685v10.5H24.1V16.71H20.341V15.46h9.091Z" transform="translate(40.338 -15.263)"/>
        <path id="Path_310" data-name="Path 310" d="M24.878,27.2H23.285V15.456h1.593Z" transform="translate(49.118 -15.276)"/>
        <path id="Path_311" data-name="Path 311" d="M33.9,22.5a5.014,5.014,0,0,1-1.326,3.569,4.52,4.52,0,0,1-3.452,1.423,4.269,4.269,0,0,1-3.329-1.423A5.115,5.115,0,0,1,24.511,22.5V20.418a5.129,5.129,0,0,1,1.282-3.569,4.239,4.239,0,0,1,3.329-1.431,4.492,4.492,0,0,1,3.452,1.423A5.046,5.046,0,0,1,33.9,20.418Zm-1.585-2.1a3.967,3.967,0,0,0-.864-2.641,2.873,2.873,0,0,0-2.33-1.031,2.672,2.672,0,0,0-2.206,1.031,4.147,4.147,0,0,0-.824,2.641v2.1a4.189,4.189,0,0,0,.824,2.666,2.668,2.668,0,0,0,2.206,1.027,2.9,2.9,0,0,0,2.334-1.027,3.986,3.986,0,0,0,.86-2.666Z" transform="translate(52.751 -15.407)"/>
        <path id="Path_312" data-name="Path 312" d="M36.5,27.2H34.915L29.277,18.13h-.048v9.051H27.664V15.456h1.581l5.639,9.055h.052V15.456h1.581Z" transform="translate(62.176 -15.276)"/>
        <path id="Path_313" data-name="Path 313" d="M40.851,16.694H37.1v10.5H35.511V16.71H31.752V15.46h9.091Z" transform="translate(74.367 -15.263)"/>
        <path id="Path_314" data-name="Path 314" d="M41.617,21.75h-5.36v4.187h6.18V27.2H34.676V15.456h7.67V16.7H36.257v3.8h5.36Z" transform="translate(83.087 -15.276)"/>
        <path id="Path_315" data-name="Path 315" d="M45.947,23.549V23.6a3.53,3.53,0,0,1-1.155,2.77A4.435,4.435,0,0,1,41.65,27.5a4.138,4.138,0,0,1-3.233-1.415,5.2,5.2,0,0,1-1.25-3.581V20.418a5.213,5.213,0,0,1,1.25-3.581,4.12,4.12,0,0,1,3.233-1.415,4.519,4.519,0,0,1,3.158,1.063,3.5,3.5,0,0,1,1.127,2.81v.044H44.43a2.626,2.626,0,0,0-.721-1.95,2.779,2.779,0,0,0-2.039-.72,2.51,2.51,0,0,0-2.114,1.071,4.4,4.4,0,0,0-.788,2.641v2.1a4.392,4.392,0,0,0,.788,2.67,2.484,2.484,0,0,0,2.114,1.075,2.743,2.743,0,0,0,2.039-.716,2.633,2.633,0,0,0,.733-1.966Z" transform="translate(90.504 -15.392)"/>
        <path id="Path_316" data-name="Path 316" d="M48.956,27.2H47.367v-5.2H41.693v5.2H40.124V15.456h1.585v5.3h5.675v-5.3h1.589Z" transform="translate(99.333 -15.276)"/>
        <path id="Path_317" data-name="Path 317" d="M52.117,27.2H50.54L44.9,18.13h-.048v9.051H43.273V15.456h1.581l5.639,9.055h.048V15.456h1.585Z" transform="translate(108.724 -15.276)"/>
        <path id="Path_318" data-name="Path 318" d="M55.681,22.5a5,5,0,0,1-1.33,3.569A4.52,4.52,0,0,1,50.9,27.492a4.293,4.293,0,0,1-3.329-1.423A5.129,5.129,0,0,1,46.3,22.5V20.418a5.14,5.14,0,0,1,1.274-3.569A4.263,4.263,0,0,1,50.9,15.415a4.492,4.492,0,0,1,3.452,1.423,5.028,5.028,0,0,1,1.33,3.577ZM54.1,20.4a3.971,3.971,0,0,0-.868-2.641A2.875,2.875,0,0,0,50.9,16.726a2.652,2.652,0,0,0-2.2,1.031,4.1,4.1,0,0,0-.824,2.641v2.1a4.166,4.166,0,0,0,.824,2.666,2.659,2.659,0,0,0,2.2,1.027,2.884,2.884,0,0,0,2.334-1.027A3.993,3.993,0,0,0,54.1,22.5Z" transform="translate(117.727 -15.407)"/>
        <path id="Path_319" data-name="Path 319" d="M51.03,25.937h5.535V27.2H49.449V15.456H51.03Z" transform="translate(127.142 -15.276)"/>
        <path id="Path_320" data-name="Path 320" d="M61.094,22.5a5.017,5.017,0,0,1-1.33,3.569,4.526,4.526,0,0,1-3.452,1.423,4.282,4.282,0,0,1-3.329-1.423A5.093,5.093,0,0,1,51.7,22.5V20.418a5.143,5.143,0,0,1,1.278-3.569,4.252,4.252,0,0,1,3.329-1.431,4.5,4.5,0,0,1,3.452,1.423,5.043,5.043,0,0,1,1.33,3.577Zm-1.585-2.1a3.95,3.95,0,0,0-.868-2.641,2.868,2.868,0,0,0-2.33-1.031,2.657,2.657,0,0,0-2.2,1.031,4.077,4.077,0,0,0-.824,2.641v2.1a4.143,4.143,0,0,0,.824,2.666,2.664,2.664,0,0,0,2.2,1.027,2.884,2.884,0,0,0,2.334-1.027,3.969,3.969,0,0,0,.864-2.666Z" transform="translate(133.858 -15.407)"/>
        <path id="Path_321" data-name="Path 321" d="M63.692,25.766a3.664,3.664,0,0,1-1.445,1.2,5.737,5.737,0,0,1-2.668.536,4.753,4.753,0,0,1-3.468-1.343,4.7,4.7,0,0,1-1.37-3.48V20.246a4.885,4.885,0,0,1,1.278-3.484,4.326,4.326,0,0,1,3.3-1.347,4.689,4.689,0,0,1,3.158.992,3.317,3.317,0,0,1,1.175,2.554v.052h-1.5a2.448,2.448,0,0,0-.78-1.686,2.857,2.857,0,0,0-2.019-.659,2.64,2.64,0,0,0-2.162,1,3.878,3.878,0,0,0-.82,2.55v2.438a3.681,3.681,0,0,0,.912,2.569,3,3,0,0,0,2.33,1.011,4.343,4.343,0,0,0,1.629-.264,2.269,2.269,0,0,0,.912-.6v-2.66h-2.56V21.466h4.129Z" transform="translate(142.911 -15.407)"/>
        <path id="Path_322" data-name="Path 322" d="M62.417,21.421l3.054-5.962h1.808l-4.106,7.6v4.152H61.6V22.957l-4.042-7.5H59.37Z" transform="translate(151.326 -15.276)"/>
      </g>
      <g id="Group_11" data-name="Group 11">
        <rect id="Rectangle_89" data-name="Rectangle 89" width="6.57" height="6.594" transform="translate(13.14 6.594)" fill="#5d90cb"/>
        <rect id="Rectangle_90" data-name="Rectangle 90" width="6.57" height="6.594" transform="translate(6.57)" fill="#5d90cb"/>
        <rect id="Rectangle_91" data-name="Rectangle 91" width="6.57" height="6.594" transform="translate(6.57 13.187)" fill="#5d90cb"/>
        <rect id="Rectangle_92" data-name="Rectangle 92" width="6.57" height="6.594" transform="translate(0 6.594)" fill="#5d90cb"/>
      </g>
    </g>
  </g>
</svg>
